<?xml version="1.0" encoding="UTF-8"?>
<!DOCTYPE svg PUBLIC "-//W3C//DTD SVG 1.1//EN" "http://www.w3.org/Graphics/SVG/1.1/DTD/svg11.dtd">
<svg xmlns="http://www.w3.org/2000/svg"
     xml:space="preserve"
     width="30px"
     height="30px"
     version="1.1"
     style="shape-rendering:geometricPrecision; text-rendering:geometricPrecision; image-rendering:optimizeQuality; fill-rule:evenodd; clip-rule:evenodd"
     viewBox="0 0 30000 30000"
     xmlns:xlink="http://www.w3.org/1999/xlink">
  <defs>
    <style type="text/css">
      <![CDATA[
        .fil0 {fill:none}
        .fil1 {fill:white}
   ]]>
    </style>
  </defs>
  <g>
    <rect class="fil0" x="-1" y="-1" width="30002" height="30002"/>
    <path class="fil1" d="M15000 13344c-1375,0 -2501,1124 -2501,2499 0,1376 1126,2501 2501,2501 1375,0 2501,-1125 2501,-2501 0,-1375 -1126,-2499 -2501,-2499zm7501 2499c0,-4137 -3363,-7500 -7501,-7500 -4138,0 -7501,3363 -7501,7500 0,2776 1512,5188 3751,6489l1251 -2175c-1489,-875 -2501,-2463 -2501,-4314 0,-2761 2237,-5000 5000,-5000 2763,0 5000,2239 5000,5000 0,1851 -1012,3439 -2501,4314l1251 2175c2237,-1301 3751,-3713 3751,-6489zm-7501 -12500c-6901,0 -12501,5600 -12501,12500 0,4626 2513,8651 6238,10814l1250 -2163c-2975,-1737 -4988,-4950 -4988,-8651 0,-5525 4475,-10000 10001,-10000 5526,0 10001,4475 10001,10000 0,3701 -2013,6914 -5000,8651l1250 2163c3737,-2163 6251,-6188 6251,-10814 0,-6900 -5601,-12500 -12502,-12500l0 0z"/>
  </g>
</svg>